<svg width="32" height="32" fill="none" xmlns="http://www.w3.org/2000/svg"><path fill-rule="evenodd" clip-rule="evenodd" d="m1.45 29.545.005.005a1.522 1.522 0 0 0 1.574.368s.87-.244 1.4-.51c.98-.49.699-1.052.65-1.237-.048-.185-.16-.385-.65-.385H3.214l2.526-7.447L18.522 7.558s2.54.605 3.579 1.769c.89.998 1.341 3.152 1.341 3.152l-6.015 6.016-6.016 6.015c-.858-.816-2.77-2.547-3.554-2.938-.783-.392-1.47.49-.98.98l3.192 2.909 1.655 1.507 16.684-16.684a5.439 5.439 0 1 0-7.693-7.69L4.032 19.276l-2.95 8.694a1.521 1.521 0 0 0 .368 1.574ZM24.559 2.97a3.48 3.48 0 0 0-2.458 1.01l-2.194 2.193s2.498.561 3.535 1.685c.933 1.01 1.386 3.236 1.386 3.236L27.022 8.9a3.48 3.48 0 0 0-2.463-5.93Z" fill="#3D2E87"/></svg>