<svg width="109" height="16" fill="none" xmlns="http://www.w3.org/2000/svg"><path d="M5.952 5.302 7.9 1.378a.683.683 0 0 1 1.223 0l1.948 3.924 4.356.633a.677.677 0 0 1 .377 1.156l-3.151 3.053.744 4.313c.095.553-.49.974-.99.713L8.51 13.134l-3.896 2.038a.681.681 0 0 1-.99-.715l.745-4.313-3.152-3.052a.677.677 0 0 1 .378-1.155l4.356-.634ZM28.949 5.302l1.948-3.924a.683.683 0 0 1 1.223 0l1.949 3.924 4.355.633a.677.677 0 0 1 .378 1.156l-3.152 3.053.744 4.313c.096.553-.49.974-.99.713l-3.895-2.037-3.896 2.038a.681.681 0 0 1-.99-.715l.744-4.313-3.151-3.052a.678.678 0 0 1 .377-1.155l4.356-.634ZM51.946 5.302l1.949-3.924a.683.683 0 0 1 1.222 0l1.949 3.924 4.356.633a.677.677 0 0 1 .377 1.156l-3.151 3.053.743 4.313c.096.553-.49.974-.99.713l-3.895-2.037-3.896 2.038a.681.681 0 0 1-.99-.715l.745-4.313-3.152-3.052a.677.677 0 0 1 .377-1.155l4.356-.634ZM74.944 5.302l1.948-3.924a.684.684 0 0 1 1.223 0l1.948 3.924 4.356.633a.677.677 0 0 1 .377 1.156l-3.151 3.053.744 4.313a.681.681 0 0 1-.99.713l-3.896-2.037-3.896 2.038a.681.681 0 0 1-.99-.715l.745-4.313-3.152-3.052a.676.676 0 0 1 .378-1.155l4.356-.634ZM97.94 5.302l1.95-3.924a.682.682 0 0 1 1.222 0l1.948 3.924 4.356.633a.68.68 0 0 1 .551.46.676.676 0 0 1-.173.696l-3.152 3.053.744 4.313a.681.681 0 0 1-.99.713l-3.895-2.037-3.897 2.038a.681.681 0 0 1-.989-.715l.744-4.313-3.151-3.052a.676.676 0 0 1 .377-1.155l4.356-.634Z" fill="#3D2E87" stroke="#3D2E87" stroke-width="1.5" stroke-linecap="round" stroke-linejoin="round"/></svg>