<svg aria-hidden="true" style="position: absolute; width: 0; height: 0; overflow: hidden;" version="1.1" xmlns="http://www.w3.org/2000/svg" xmlns:xlink="http://www.w3.org/1999/xlink">
<defs>
<symbol id="icon-arrow" viewBox="0 0 32 32">
<path stroke-linejoin="round" stroke-linecap="round" stroke-miterlimit="4" stroke-width="2.9091" d="M25.333 16h-18.667M25.333 16l-8 8M25.333 16l-8-8"></path>
</symbol>
<symbol id="icon-arrow-bot" viewBox="0 0 32 32">
<path d="M3.272 10.586c0.375-0.375 0.884-0.586 1.414-0.586s1.039 0.211 1.414 0.586l9.9 9.9 9.9-9.9c0.377-0.364 0.883-0.566 1.407-0.561s1.026 0.215 1.397 0.586c0.371 0.371 0.581 0.872 0.586 1.397s-0.197 1.030-0.561 1.407l-11.314 11.314c-0.375 0.375-0.884 0.586-1.414 0.586s-1.039-0.21-1.414-0.586l-11.314-11.314c-0.375-0.375-0.586-0.884-0.586-1.414s0.211-1.039 0.586-1.414z"></path>
</symbol>
<symbol id="icon-arrowleft" viewBox="0 0 43 32">
<path stroke-linejoin="round" stroke-linecap="round" stroke-miterlimit="4" stroke-width="2.6667" d="M6.667 16h35.333M6.667 16l8 8M6.667 16l8-8"></path>
</symbol>
<symbol id="icon-arrowright" viewBox="0 0 43 32">
<path stroke-linejoin="round" stroke-linecap="round" stroke-miterlimit="4" stroke-width="2.6667" d="M36 16h-35.333M36 16l-8 8M36 16l-8-8"></path>
</symbol>
<symbol id="icon-heart" viewBox="0 0 32 32">
<path d="M22.25 4c-2.581 0-4.841 1.11-6.25 2.986-1.409-1.876-3.669-2.986-6.25-2.986-2.055 0.002-4.025 0.82-5.478 2.272s-2.27 3.423-2.272 5.478c0 8.75 12.974 15.832 13.526 16.125 0.146 0.078 0.308 0.119 0.474 0.119s0.328-0.041 0.474-0.119c0.552-0.293 13.526-7.375 13.526-16.125-0.002-2.055-0.82-4.025-2.273-5.478s-3.423-2.27-5.477-2.272zM16 25.85c-2.283-1.33-12-7.389-12-14.1 0.002-1.524 0.608-2.986 1.686-4.064s2.539-1.684 4.064-1.686c2.431 0 4.473 1.295 5.325 3.375 0.075 0.183 0.204 0.34 0.368 0.451s0.358 0.169 0.557 0.169c0.198 0 0.392-0.059 0.557-0.169s0.293-0.267 0.368-0.451c0.852-2.084 2.894-3.375 5.325-3.375 1.524 0.002 2.986 0.608 4.064 1.686s1.684 2.539 1.686 4.064c0 6.701-9.72 12.769-12 14.1z"></path>
</symbol>
<symbol id="icon-language" viewBox="0 0 32 32">
<path d="M15.987 2.667c-7.36 0-13.32 5.973-13.32 13.333s5.96 13.333 13.32 13.333c7.373 0 13.347-5.973 13.347-13.333s-5.973-13.333-13.347-13.333zM25.227 10.667h-3.933c-0.417-1.651-1.035-3.245-1.84-4.747 2.432 0.837 4.482 2.522 5.773 4.747zM16 5.387c1.107 1.6 1.973 3.373 2.547 5.28h-5.093c0.573-1.907 1.44-3.68 2.547-5.28zM5.68 18.667c-0.213-0.853-0.347-1.747-0.347-2.667s0.133-1.813 0.347-2.667h4.507c-0.107 0.88-0.187 1.76-0.187 2.667s0.080 1.787 0.187 2.667h-4.507zM6.773 21.333h3.933c0.427 1.667 1.040 3.267 1.84 4.747-2.435-0.833-4.486-2.519-5.773-4.747zM10.707 10.667h-3.933c1.288-2.228 3.339-3.914 5.773-4.747-0.805 1.501-1.423 3.095-1.84 4.747zM16 26.613c-1.107-1.6-1.973-3.373-2.547-5.28h5.093c-0.573 1.907-1.44 3.68-2.547 5.28zM19.12 18.667h-6.24c-0.12-0.88-0.213-1.76-0.213-2.667s0.093-1.8 0.213-2.667h6.24c0.12 0.867 0.213 1.76 0.213 2.667s-0.093 1.787-0.213 2.667zM19.453 26.080c0.8-1.48 1.413-3.080 1.84-4.747h3.933c-1.292 2.224-3.341 3.909-5.773 4.747zM21.813 18.667c0.107-0.88 0.187-1.76 0.187-2.667s-0.080-1.787-0.187-2.667h4.507c0.213 0.853 0.347 1.747 0.347 2.667s-0.133 1.813-0.347 2.667h-4.507z"></path>
</symbol>
<symbol id="icon-pencil" viewBox="0 0 32 32">
<path d="M1.45 29.545c-0.203-0.201-0.345-0.456-0.41-0.734s-0.050-0.569 0.043-0.84l2.949-8.694 16.684-16.684c1.020-1.020 2.403-1.593 3.846-1.593s2.826 0.573 3.846 1.593c1.020 1.020 1.593 2.403 1.593 3.846s-0.573 2.826-1.593 3.846l-16.684 16.684-4.846-4.417c-0.49-0.49 0.196-1.372 0.98-0.98s2.695 2.122 3.553 2.939l12.032-12.032c0 0-0.451-2.154-1.341-3.152-1.038-1.163-3.579-1.769-3.579-1.769l-12.781 12.781-2.526 7.447c0 0 0.65 0 1.214 0 0.49 0 0.602 0.2 0.651 0.385s0.329 0.748-0.651 1.237c-0.53 0.265-1.399 0.509-1.399 0.509-0.16 0.054-0.327 0.082-0.496 0.082-0.2-0-0.399-0.040-0.584-0.117s-0.353-0.19-0.494-0.332l-0.005-0.005zM24.559 2.969c-0.921-0.002-1.804 0.361-2.458 1.010l-2.194 2.194c0 0 2.498 0.561 3.535 1.685 0.932 1.010 1.385 3.236 1.385 3.236l2.194-2.194c0.648-0.653 1.012-1.537 1.010-2.458s-0.368-1.803-1.019-2.454-1.533-1.017-2.454-1.019z"></path>
</symbol>
<symbol id="icon-stars" viewBox="0 0 218 32">
<path stroke-linejoin="round" stroke-linecap="round" stroke-miterlimit="4" stroke-width="3" d="M11.903 10.604l3.897-7.848c0.113-0.227 0.288-0.418 0.504-0.552s0.465-0.204 0.719-0.204c0.254 0 0.503 0.071 0.719 0.204s0.39 0.325 0.504 0.552l3.897 7.848 8.712 1.266c0.251 0.035 0.488 0.14 0.682 0.302s0.34 0.377 0.418 0.618c0.079 0.241 0.088 0.5 0.027 0.746s-0.19 0.47-0.373 0.647l-6.303 6.105 1.488 8.625c0.191 1.107-0.979 1.95-1.98 1.428l-7.791-4.074-7.793 4.074c-0.999 0.523-2.169-0.321-1.979-1.43l1.488-8.625-6.303-6.105c-0.182-0.176-0.31-0.4-0.371-0.646s-0.051-0.504 0.027-0.744c0.079-0.241 0.223-0.454 0.417-0.617s0.43-0.267 0.68-0.303l8.712-1.268z"></path>
<path stroke-linejoin="round" stroke-linecap="round" stroke-miterlimit="4" stroke-width="3" d="M57.898 10.604l3.897-7.848c0.113-0.227 0.288-0.418 0.504-0.552s0.465-0.204 0.719-0.204c0.254 0 0.503 0.071 0.719 0.204s0.39 0.325 0.504 0.552l3.897 7.848 8.712 1.266c0.251 0.035 0.488 0.14 0.682 0.302s0.34 0.377 0.418 0.618c0.079 0.241 0.088 0.5 0.027 0.746s-0.19 0.47-0.373 0.647l-6.303 6.105 1.488 8.625c0.191 1.107-0.979 1.95-1.98 1.428l-7.791-4.074-7.792 4.074c-0.999 0.523-2.169-0.321-1.979-1.43l1.488-8.625-6.303-6.105c-0.181-0.176-0.31-0.4-0.371-0.646s-0.051-0.504 0.028-0.744 0.223-0.454 0.417-0.617c0.194-0.163 0.43-0.267 0.681-0.303l8.712-1.268z"></path>
<path stroke-linejoin="round" stroke-linecap="round" stroke-miterlimit="4" stroke-width="3" d="M103.893 10.604l3.897-7.848c0.113-0.227 0.288-0.418 0.504-0.552s0.465-0.204 0.719-0.204c0.254 0 0.503 0.071 0.719 0.204s0.39 0.325 0.504 0.552l3.897 7.848 8.712 1.266c0.251 0.035 0.488 0.14 0.682 0.302s0.34 0.377 0.418 0.618c0.079 0.241 0.088 0.5 0.027 0.746s-0.19 0.47-0.373 0.647l-6.303 6.105 1.488 8.625c0.191 1.107-0.979 1.95-1.98 1.428l-7.791-4.074-7.792 4.074c-0.999 0.523-2.169-0.321-1.979-1.43l1.488-8.625-6.303-6.105c-0.181-0.176-0.31-0.4-0.37-0.646s-0.051-0.504 0.027-0.744 0.223-0.454 0.417-0.617c0.194-0.163 0.43-0.267 0.68-0.303l8.712-1.268z"></path>
<path stroke-linejoin="round" stroke-linecap="round" stroke-miterlimit="4" stroke-width="3" d="M149.887 10.604l3.897-7.848c0.113-0.227 0.288-0.418 0.504-0.552s0.465-0.204 0.719-0.204c0.254 0 0.503 0.071 0.719 0.204s0.39 0.325 0.504 0.552l3.897 7.848 8.712 1.266c0.251 0.035 0.488 0.14 0.682 0.302s0.339 0.377 0.418 0.618c0.079 0.241 0.088 0.5 0.027 0.746s-0.19 0.47-0.373 0.647l-6.303 6.105 1.488 8.625c0.19 1.107-0.98 1.95-1.98 1.428l-7.791-4.074-7.793 4.074c-0.999 0.523-2.169-0.321-1.978-1.43l1.488-8.625-6.303-6.105c-0.182-0.176-0.31-0.4-0.371-0.646s-0.051-0.504 0.027-0.744 0.223-0.454 0.417-0.617c0.194-0.163 0.43-0.267 0.68-0.303l8.712-1.268z"></path>
<path stroke-linejoin="round" stroke-linecap="round" stroke-miterlimit="4" stroke-width="3" d="M195.882 10.604l3.897-7.848c0.113-0.227 0.287-0.418 0.503-0.552s0.466-0.204 0.72-0.204c0.254 0 0.502 0.071 0.718 0.204s0.39 0.325 0.504 0.552l3.896 7.848 8.712 1.266c0.252 0.035 0.488 0.14 0.684 0.302 0.194 0.163 0.338 0.377 0.418 0.618 0.078 0.241 0.088 0.5 0.026 0.746s-0.19 0.47-0.372 0.647l-6.304 6.105 1.488 8.625c0.19 1.107-0.98 1.95-1.98 1.428l-7.79-4.074-7.793 4.074c-0.999 0.523-2.169-0.321-1.978-1.43l1.488-8.625-6.303-6.105c-0.182-0.176-0.31-0.4-0.371-0.646s-0.051-0.504 0.027-0.744c0.079-0.241 0.223-0.454 0.417-0.617s0.43-0.267 0.68-0.303l8.712-1.268z"></path>
</symbol>
<symbol id="icon-time" viewBox="0 0 32 32">
<path d="M16 2.667c7.364 0 13.333 5.969 13.333 13.333s-5.969 13.333-13.333 13.333c-7.364 0-13.333-5.969-13.333-13.333s5.969-13.333 13.333-13.333zM16 5.333c-2.829 0-5.542 1.124-7.542 3.124s-3.124 4.713-3.124 7.542c0 2.829 1.124 5.542 3.124 7.543s4.713 3.124 7.542 3.124 5.542-1.124 7.543-3.124c2-2 3.124-4.713 3.124-7.543s-1.124-5.542-3.124-7.542c-2-2-4.713-3.124-7.543-3.124zM16 8c0.327 0 0.642 0.12 0.886 0.337s0.4 0.516 0.438 0.84l0.009 0.156v6.115l3.609 3.609c0.239 0.24 0.378 0.562 0.388 0.901s-0.109 0.669-0.333 0.923c-0.224 0.254-0.536 0.413-0.874 0.445s-0.674-0.065-0.942-0.273l-0.125-0.111-4-4c-0.207-0.207-0.34-0.477-0.379-0.768l-0.012-0.175v-6.667c0-0.354 0.14-0.693 0.39-0.943s0.589-0.391 0.943-0.391z"></path>
</symbol>
</defs>
</svg>
